---------------------------------------------------------------------------------------
                                     Alan Jackson
                               The Greatest Hits Collection
---------------------------------------------------------------------------------------

Album Released in 1995
Total Tracktime: 1h 06m 36s
    
01.  Alan Jackson - Chattahoochee (Extended Mix)   [0:3:57.65]
02.  Alan Jackson - Gone Country   [0:4:19.58]    
03.  Alan Jackson - She's Got The Rhythm (And I Got The Blues)   [0:2:25.00] 
04.  Alan Jackson - Midnight In Montgomery   [0:3:44.27] 
05.  Alan Jackson - Tall, Tall Trees   [0:2:28.13] 
06.  Alan Jackson - Chasin' That Neon Rainbow   [0:3:05.60] 
07.  Alan Jackson - I'll Try   [0:3:51.65] 
08.  Alan Jackson - Don't Rock The Jukebox   [0:2:51.45]
09.  Alan Jackson - Livin' On Love   [0:3:48.37]
10.  Alan Jackson - Summertime Blues   [0:3:12.10]
11.  Alan Jackson - Love's Got A Hold On You   [0:2:54.28]
12.  Alan Jackson - (Who Says) You Can't Have It All   [0:3:29.05]
13.  Alan Jackson - Home   [0:3:18.12]
14.  Alan Jackson - Wanted   [0:2:57.60]
15.  Alan Jackson - I Don't Even Know Your Name   [0:3:50.58]
16.  Alan Jackson - Dallas   [0:2:44.37]
17.  Alan Jackson - Here In The Real World   [0:3:38.05]
18.  Alan Jackson - Someday   [0:3:17.33]
19.  Alan Jackson - Mercury Blues   [0:3:39.07]
20.  Alan Jackson - I'd Love You All Over Again   [0:3:10.38]

---------------------------------------------------------------------------------------

Exact Audio Copy V0.99 prebeta 5 from 4. May 2009

EAC extraction logfile from 6. August 2009, 13:24

Alan Jackson / The Greatest Hits Collection

Used drive  : HL-DT-STDVD-RAM GSA-H58N   Adapter: 0  ID: 0

Read mode               : Secure
Utilize accurate stream : Yes
Defeat audio cache      : No
Make use of C2 pointers : No

Read offset correction                      : 102
Overread into Lead-In and Lead-Out          : No
Fill up missing offset samples with silence : Yes
Delete leading and trailing silent blocks   : No
Null samples used in CRC calculations       : No
Used interface                              : Native Win32 interface for Win NT & 2000
Gap handling                                : Not detected, thus appended to previous track

Used output format              : User Defined Encoder
Selected bitrate                : 1024 kBit/s
Quality                         : High
Add ID3 tag                     : No
Command line compressor         : C:Program FilesExact Audio CopyFLACFLAC.EXE
Additional command line options : -6 -V -T "ARTIST=%a" -T "TITLE=%t" -T "ALBUM=%g" -T "DATE=%y" -T "TRACKNUMBER=%n" -T "GENRE=%m" -T "COMMENT=%e" %s -o %d


---------------------------------------------------------------------------------------

         
           Track |   Start  |  Length  | Start sector | End sector 
          ---------------------------------------------------------
              1  |  0:00.32 |  3:57.65 |        32    |    17871   
              2  |  3:58.22 |  4:19.58 |     17872    |    37354   
              3  |  8:18.05 |  2:25.00 |     37355    |    48229   
              4  | 10:43.05 |  3:44.27 |     48230    |    65056   
              5  | 14:27.32 |  2:28.13 |     65057    |    76169   
              6  | 16:55.45 |  3:05.60 |     76170    |    90104   
              7  | 20:01.30 |  3:51.65 |     90105    |   107494   
              8  | 23:53.20 |  2:51.45 |    107495    |   120364   
              9  | 26:44.65 |  3:48.37 |    120365    |   137501   
             10  | 30:33.27 |  3:12.10 |    137502    |   151911   
             11  | 33:45.37 |  2:54.28 |    151912    |   164989   
             12  | 36:39.65 |  3:29.05 |    164990    |   180669   
             13  | 40:08.70 |  3:18.12 |    180670    |   195531   
             14  | 43:27.07 |  2:57.60 |    195532    |   208866   
             15  | 46:24.67 |  3:50.58 |    208867    |   226174   
             16  | 50:15.50 |  2:44.37 |    226175    |   238511   
             17  | 53:00.12 |  3:38.05 |    238512    |   254866   
             18  | 56:38.17 |  3:17.33 |    254867    |   269674   
             19  | 59:55.50 |  3:39.07 |    269675    |   286106   
             20  | 63:34.57 |  3:10.38 |    286107    |   300394   


---------------------------------------------------------------------------------------

Enjoy!

---------------------------------------------------------------------------------------
---------------------------------------------------------------------------------------
